<?xml version="1.0" encoding="UTF-8" standalone="no"?><!DOCTYPE svg PUBLIC "-//W3C//DTD SVG 1.1//EN" "http://www.w3.org/Graphics/SVG/1.1/DTD/svg11.dtd"><svg width="100%" height="100%" viewBox="0 0 375 375" version="1.1" xmlns="http://www.w3.org/2000/svg" xmlns:xlink="http://www.w3.org/1999/xlink" xml:space="preserve" xmlns:serif="http://www.serif.com/" style="fill-rule:evenodd;clip-rule:evenodd;stroke-linecap:round;stroke-linejoin:round;stroke-miterlimit:1.5;"><g><circle cx="148.628" cy="95.246" r="15.693" style="fill:#ff0;"/><path d="M115.169,94.902c0,-3.708 4.66,-6.719 10.399,-6.719c5.74,0 10.399,3.011 10.399,6.719c2.87,-3.211 9.235,-4.313 14.206,-2.459c4.97,1.854 6.676,5.967 3.806,9.178c4.97,-1.854 11.335,-0.752 14.205,2.459c2.87,3.212 1.164,7.324 -3.806,9.178c5.739,0 10.399,3.011 10.399,6.719c-0,3.709 -4.66,6.719 -10.399,6.719c4.97,1.854 6.676,5.967 3.806,9.178c-2.87,3.212 -9.235,4.314 -14.205,2.46c2.87,3.211 1.164,7.324 -3.806,9.178c-4.971,1.854 -11.336,0.752 -14.206,-2.46c0,3.709 -4.659,6.719 -10.399,6.719c-5.739,0 -10.399,-3.01 -10.399,-6.719c-2.87,3.212 -9.235,4.314 -14.205,2.46c-4.971,-1.854 -6.676,-5.967 -3.806,-9.178c-4.971,1.854 -11.336,0.752 -14.206,-2.46c-2.869,-3.211 -1.164,-7.324 3.807,-9.178c-5.74,0 -10.4,-3.01 -10.4,-6.719c0,-3.708 4.66,-6.719 10.4,-6.719c-4.971,-1.854 -6.676,-5.966 -3.807,-9.178c2.87,-3.211 9.235,-4.313 14.206,-2.459c-2.87,-3.211 -1.165,-7.324 3.806,-9.178c4.97,-1.854 11.335,-0.752 14.205,2.459Z" style="fill:#ebebeb;"/></g><g><circle cx="269.959" cy="115.662" r="28.717" style="fill:none;stroke:#000;stroke-width:3.75px;"/><path d="M270.129,96.804c0,-0.046 -0.037,-0.083 -0.083,-0.083l-0.166,0c-0.046,0 -0.083,0.037 -0.083,0.083l-0,19.272c-0,0.046 0.037,0.083 0.083,0.083l0.166,-0c0.046,-0 0.083,-0.037 0.083,-0.083l0,-19.272Z" style="fill:none;stroke:#000;stroke-width:3.75px;"/><path d="M281.057,120.178c0.043,0.016 0.091,-0.007 0.107,-0.05l0.057,-0.156c0.015,-0.043 -0.007,-0.091 -0.05,-0.107l-11.122,-4.041c-0.043,-0.016 -0.091,0.006 -0.107,0.049l-0.057,0.157c-0.015,0.043 0.007,0.091 0.05,0.106l11.122,4.042Z" style="fill:none;stroke:#000;stroke-width:3.75px;"/></g><g><g><path d="M89.355,206.441c0,-2.867 -2.327,-5.194 -5.194,-5.194l-10.388,-0c-2.867,-0 -5.194,2.327 -5.194,5.194l-0,10.388c-0,2.867 2.327,5.194 5.194,5.194l10.388,0c2.867,0 5.194,-2.327 5.194,-5.194l0,-10.388Z" style="fill:none;stroke:#000;stroke-width:3.75px;"/><path d="M175.274,211.041c0,-0.07 -0.057,-0.127 -0.126,-0.127l-74.421,0c-0.07,0 -0.127,0.057 -0.127,0.127l0,0.254c0,0.069 0.057,0.126 0.127,0.126l74.421,0c0.069,0 0.126,-0.057 0.126,-0.126l0,-0.254Z" style="fill:none;stroke:#000;stroke-width:3.75px;"/></g><g><path d="M89.355,243.941c0,-2.867 -2.327,-5.194 -5.194,-5.194l-10.388,-0c-2.867,-0 -5.194,2.327 -5.194,5.194l-0,10.388c-0,2.867 2.327,5.194 5.194,5.194l10.388,0c2.867,0 5.194,-2.327 5.194,-5.194l0,-10.388Z" style="fill:none;stroke:#000;stroke-width:3.75px;"/><path d="M175.274,248.541c0,-0.07 -0.057,-0.127 -0.126,-0.127l-74.421,0c-0.07,0 -0.127,0.057 -0.127,0.127l0,0.254c0,0.069 0.057,0.126 0.127,0.126l74.421,0c0.069,0 0.126,-0.057 0.126,-0.126l0,-0.254Z" style="fill:none;stroke:#000;stroke-width:3.75px;"/></g><g><path d="M89.355,281.441c0,-2.867 -2.327,-5.194 -5.194,-5.194l-10.388,-0c-2.867,-0 -5.194,2.327 -5.194,5.194l-0,10.388c-0,2.867 2.327,5.194 5.194,5.194l10.388,0c2.867,0 5.194,-2.327 5.194,-5.194l0,-10.388Z" style="fill:none;stroke:#000;stroke-width:3.75px;"/><path d="M175.274,286.041c0,-0.07 -0.057,-0.127 -0.126,-0.127l-74.421,0c-0.07,0 -0.127,0.057 -0.127,0.127l0,0.254c0,0.069 0.057,0.126 0.127,0.126l74.421,0c0.069,0 0.126,-0.057 0.126,-0.126l0,-0.254Z" style="fill:none;stroke:#000;stroke-width:3.75px;"/></g></g></svg>